<svg width="176" height="36" viewBox="0 0 176 36" fill="none" xmlns="http://www.w3.org/2000/svg">
<path fill-rule="evenodd" clip-rule="evenodd" d="M22.9411 0.90958C28.3837 -1.77878 35 1.81478 35 7.45924V28.5483C35 33.3051 30.1772 36.8431 25.0818 35.8241L10.8004 32.9682C8.25936 32.46 6.13573 30.8786 5.08192 28.7097L0.70165 19.6946C-1.02414 16.1428 0.533363 11.9778 4.27935 10.1275L22.9411 0.90958Z" fill="url(#paint0_linear_1_23)"/>
<path fill-rule="evenodd" clip-rule="evenodd" d="M22.9411 0.90958C28.3837 -1.77878 35 1.81478 35 7.45924V28.5483C35 33.3051 30.1772 36.8431 25.0818 35.8241L10.8004 32.9682C8.25936 32.46 6.13573 30.8786 5.08192 28.7097L0.70165 19.6946C-1.02414 16.1428 0.533363 11.9778 4.27935 10.1275L22.9411 0.90958Z" fill="black" fill-opacity="0.2"/>
<path d="M49.201 25V11.1818H52.1225V16.8832H58.0533V11.1818H60.968V25H58.0533V19.2919H52.1225V25H49.201ZM67.4353 25.2024C66.3873 25.2024 65.4809 24.9798 64.7162 24.5344C63.956 24.0846 63.369 23.4594 62.9552 22.6587C62.5414 21.8536 62.3345 20.9202 62.3345 19.8587C62.3345 18.7881 62.5414 17.8525 62.9552 17.0518C63.369 16.2467 63.956 15.6214 64.7162 15.1761C65.4809 14.7263 66.3873 14.5014 67.4353 14.5014C68.4834 14.5014 69.3875 14.7263 70.1477 15.1761C70.9124 15.6214 71.5016 16.2467 71.9154 17.0518C72.3293 17.8525 72.5362 18.7881 72.5362 19.8587C72.5362 20.9202 72.3293 21.8536 71.9154 22.6587C71.5016 23.4594 70.9124 24.0846 70.1477 24.5344C69.3875 24.9798 68.4834 25.2024 67.4353 25.2024ZM67.4488 22.9759C67.9256 22.9759 68.3237 22.8409 68.6431 22.571C68.9624 22.2966 69.2031 21.9233 69.365 21.451C69.5314 20.9787 69.6147 20.4412 69.6147 19.8384C69.6147 19.2357 69.5314 18.6982 69.365 18.2259C69.2031 17.7536 68.9624 17.3802 68.6431 17.1058C68.3237 16.8314 67.9256 16.6942 67.4488 16.6942C66.9675 16.6942 66.5627 16.8314 66.2343 17.1058C65.9105 17.3802 65.6653 17.7536 65.4989 18.2259C65.337 18.6982 65.256 19.2357 65.256 19.8384C65.256 20.4412 65.337 20.9787 65.4989 21.451C65.6653 21.9233 65.9105 22.2966 66.2343 22.571C66.5627 22.8409 66.9675 22.9759 67.4488 22.9759ZM76.7094 11.1818V25H73.8351V11.1818H76.7094ZM83.1244 25.2024C82.0764 25.2024 81.17 24.9798 80.4053 24.5344C79.6451 24.0846 79.0581 23.4594 78.6443 22.6587C78.2305 21.8536 78.0236 20.9202 78.0236 19.8587C78.0236 18.7881 78.2305 17.8525 78.6443 17.0518C79.0581 16.2467 79.6451 15.6214 80.4053 15.1761C81.17 14.7263 82.0764 14.5014 83.1244 14.5014C84.1725 14.5014 85.0766 14.7263 85.8368 15.1761C86.6015 15.6214 87.1907 16.2467 87.6045 17.0518C88.0184 17.8525 88.2253 18.7881 88.2253 19.8587C88.2253 20.9202 88.0184 21.8536 87.6045 22.6587C87.1907 23.4594 86.6015 24.0846 85.8368 24.5344C85.0766 24.9798 84.1725 25.2024 83.1244 25.2024ZM83.1379 22.9759C83.6147 22.9759 84.0128 22.8409 84.3322 22.571C84.6515 22.2966 84.8922 21.9233 85.0541 21.451C85.2205 20.9787 85.3038 20.4412 85.3038 19.8384C85.3038 19.2357 85.2205 18.6982 85.0541 18.2259C84.8922 17.7536 84.6515 17.3802 84.3322 17.1058C84.0128 16.8314 83.6147 16.6942 83.1379 16.6942C82.6566 16.6942 82.2518 16.8314 81.9234 17.1058C81.5996 17.3802 81.3544 17.7536 81.188 18.2259C81.0261 18.6982 80.9451 19.2357 80.9451 19.8384C80.9451 20.4412 81.0261 20.9787 81.188 21.451C81.3544 21.9233 81.5996 22.2966 81.9234 22.571C82.2518 22.8409 82.6566 22.9759 83.1379 22.9759ZM94.1933 29.1023C93.2622 29.1023 92.4638 28.9741 91.798 28.7177C91.1368 28.4658 90.6105 28.1217 90.2192 27.6854C89.8279 27.2491 89.5737 26.7588 89.4568 26.2145L92.1152 25.8569C92.1961 26.0638 92.3243 26.2572 92.4997 26.4371C92.6752 26.6171 92.9068 26.761 93.1947 26.869C93.4871 26.9814 93.8424 27.0376 94.2608 27.0376C94.886 27.0376 95.401 26.8847 95.8059 26.5788C96.2152 26.2775 96.4198 25.7714 96.4198 25.0607V23.1648H96.2984C96.1724 23.4527 95.9835 23.7248 95.7316 23.9812C95.4797 24.2376 95.1559 24.4467 94.76 24.6087C94.3642 24.7706 93.8919 24.8516 93.3431 24.8516C92.565 24.8516 91.8565 24.6716 91.2178 24.3118C90.5835 23.9474 90.0775 23.3919 89.6997 22.6452C89.3263 21.8941 89.1397 20.945 89.1397 19.7979C89.1397 18.6239 89.3308 17.6433 89.7132 16.8562C90.0955 16.069 90.6038 15.4798 91.238 15.0884C91.8768 14.6971 92.5762 14.5014 93.3364 14.5014C93.9166 14.5014 94.4024 14.6004 94.7938 14.7983C95.1851 14.9917 95.5 15.2346 95.7384 15.527C95.9813 15.8149 96.1679 16.0982 96.2984 16.3771H96.4063V14.6364H99.2604V25.1012C99.2604 25.9828 99.0445 26.7205 98.6127 27.3143C98.1809 27.908 97.5826 28.3533 96.8179 28.6502C96.0577 28.9516 95.1829 29.1023 94.1933 29.1023ZM94.254 22.6925C94.7173 22.6925 95.1086 22.5778 95.428 22.3484C95.7519 22.1145 95.9993 21.7816 96.1702 21.3498C96.3456 20.9135 96.4333 20.3917 96.4333 19.7844C96.4333 19.1772 96.3479 18.6509 96.1769 18.2056C96.006 17.7558 95.7586 17.4072 95.4348 17.1598C95.1109 16.9124 94.7173 16.7887 94.254 16.7887C93.7817 16.7887 93.3836 16.9169 93.0598 17.1733C92.7359 17.4252 92.4907 17.776 92.3243 18.2259C92.1579 18.6757 92.0747 19.1952 92.0747 19.7844C92.0747 20.3827 92.1579 20.9 92.3243 21.3363C92.4952 21.7681 92.7404 22.1032 93.0598 22.3416C93.3836 22.5755 93.7817 22.6925 94.254 22.6925ZM102.752 28.8864C102.388 28.8864 102.046 28.8571 101.727 28.7987C101.412 28.7447 101.151 28.675 100.944 28.5895L101.592 26.4439C101.929 26.5473 102.233 26.6036 102.503 26.6126C102.777 26.6216 103.013 26.5586 103.211 26.4237C103.413 26.2887 103.578 26.0593 103.704 25.7354L103.872 25.2969L100.155 14.6364H103.177L105.323 22.2472H105.431L107.597 14.6364H110.64L106.612 26.12C106.418 26.6778 106.155 27.1636 105.822 27.5774C105.494 27.9957 105.078 28.3174 104.574 28.5423C104.07 28.7717 103.463 28.8864 102.752 28.8864ZM115.422 25V11.1818H124.733V13.5906H118.343V16.8832H124.254V19.2919H118.343V22.5913H124.76V25H115.422ZM129.306 19.0085V25H126.432V14.6364H129.171V16.4648H129.293C129.522 15.8621 129.907 15.3853 130.446 15.0344C130.986 14.6791 131.641 14.5014 132.41 14.5014C133.129 14.5014 133.757 14.6589 134.292 14.9737C134.827 15.2886 135.244 15.7384 135.54 16.3232C135.837 16.9034 135.986 17.5961 135.986 18.4013V25H133.111V18.9141C133.116 18.2798 132.954 17.785 132.626 17.4297C132.297 17.0698 131.845 16.8899 131.269 16.8899C130.883 16.8899 130.541 16.9731 130.244 17.1396C129.952 17.306 129.722 17.5489 129.556 17.8683C129.394 18.1831 129.311 18.5632 129.306 19.0085ZM142.35 29.1023C141.419 29.1023 140.621 28.9741 139.955 28.7177C139.294 28.4658 138.767 28.1217 138.376 27.6854C137.985 27.2491 137.731 26.7588 137.614 26.2145L140.272 25.8569C140.353 26.0638 140.481 26.2572 140.657 26.4371C140.832 26.6171 141.064 26.761 141.352 26.869C141.644 26.9814 141.999 27.0376 142.418 27.0376C143.043 27.0376 143.558 26.8847 143.963 26.5788C144.372 26.2775 144.577 25.7714 144.577 25.0607V23.1648H144.455C144.329 23.4527 144.14 23.7248 143.888 23.9812C143.637 24.2376 143.313 24.4467 142.917 24.6087C142.521 24.7706 142.049 24.8516 141.5 24.8516C140.722 24.8516 140.013 24.6716 139.375 24.3118C138.74 23.9474 138.234 23.3919 137.857 22.6452C137.483 21.8941 137.296 20.945 137.296 19.7979C137.296 18.6239 137.488 17.6433 137.87 16.8562C138.252 16.069 138.761 15.4798 139.395 15.0884C140.034 14.6971 140.733 14.5014 141.493 14.5014C142.073 14.5014 142.559 14.6004 142.951 14.7983C143.342 14.9917 143.657 15.2346 143.895 15.527C144.138 15.8149 144.325 16.0982 144.455 16.3771H144.563V14.6364H147.417V25.1012C147.417 25.9828 147.201 26.7205 146.77 27.3143C146.338 27.908 145.739 28.3533 144.975 28.6502C144.215 28.9516 143.34 29.1023 142.35 29.1023ZM142.411 22.6925C142.874 22.6925 143.265 22.5778 143.585 22.3484C143.909 22.1145 144.156 21.7816 144.327 21.3498C144.502 20.9135 144.59 20.3917 144.59 19.7844C144.59 19.1772 144.505 18.6509 144.334 18.2056C144.163 17.7558 143.915 17.4072 143.592 17.1598C143.268 16.9124 142.874 16.7887 142.411 16.7887C141.939 16.7887 141.54 16.9169 141.217 17.1733C140.893 17.4252 140.648 17.776 140.481 18.2259C140.315 18.6757 140.232 19.1952 140.232 19.7844C140.232 20.3827 140.315 20.9 140.481 21.3363C140.652 21.7681 140.897 22.1032 141.217 22.3416C141.54 22.5755 141.939 22.6925 142.411 22.6925ZM149.135 25V14.6364H152.009V25H149.135ZM150.578 13.3004C150.151 13.3004 149.784 13.1587 149.479 12.8754C149.177 12.5875 149.027 12.2434 149.027 11.843C149.027 11.4472 149.177 11.1076 149.479 10.8242C149.784 10.5363 150.151 10.3924 150.578 10.3924C151.006 10.3924 151.37 10.5363 151.671 10.8242C151.977 11.1076 152.13 11.4472 152.13 11.843C152.13 12.2434 151.977 12.5875 151.671 12.8754C151.37 13.1587 151.006 13.3004 150.578 13.3004ZM156.616 19.0085V25H153.741V14.6364H156.481V16.4648H156.602C156.831 15.8621 157.216 15.3853 157.756 15.0344C158.296 14.6791 158.95 14.5014 159.719 14.5014C160.439 14.5014 161.066 14.6589 161.602 14.9737C162.137 15.2886 162.553 15.7384 162.85 16.3232C163.147 16.9034 163.295 17.5961 163.295 18.4013V25H160.421V18.9141C160.425 18.2798 160.264 17.785 159.935 17.4297C159.607 17.0698 159.155 16.8899 158.579 16.8899C158.192 16.8899 157.85 16.9731 157.553 17.1396C157.261 17.306 157.032 17.5489 156.865 17.8683C156.703 18.1831 156.62 18.5632 156.616 19.0085ZM169.714 25.2024C168.648 25.2024 167.73 24.9865 166.961 24.5547C166.196 24.1184 165.607 23.5021 165.193 22.706C164.779 21.9053 164.572 20.9585 164.572 19.8654C164.572 18.7994 164.779 17.8638 165.193 17.0586C165.607 16.2534 166.189 15.6259 166.941 15.1761C167.696 14.7263 168.582 14.5014 169.599 14.5014C170.283 14.5014 170.919 14.6116 171.508 14.832C172.102 15.0479 172.619 15.3741 173.06 15.8104C173.506 16.2467 173.852 16.7955 174.099 17.4567C174.347 18.1134 174.47 18.8826 174.47 19.7642V20.5536H165.719V18.7724H171.765C171.765 18.3585 171.675 17.992 171.495 17.6726C171.315 17.3532 171.065 17.1036 170.746 16.9237C170.431 16.7392 170.064 16.647 169.646 16.647C169.21 16.647 168.823 16.7482 168.486 16.9506C168.153 17.1486 167.892 17.4162 167.703 17.7536C167.514 18.0864 167.417 18.4575 167.413 18.8668V20.5604C167.413 21.0732 167.507 21.5162 167.696 21.8896C167.89 22.2629 168.162 22.5508 168.513 22.7532C168.863 22.9556 169.28 23.0568 169.761 23.0568C170.08 23.0568 170.373 23.0118 170.638 22.9219C170.903 22.8319 171.131 22.697 171.319 22.517C171.508 22.3371 171.652 22.1167 171.751 21.8558L174.41 22.0312C174.275 22.67 173.998 23.2277 173.58 23.7045C173.166 24.1768 172.631 24.5457 171.974 24.8111C171.322 25.072 170.568 25.2024 169.714 25.2024Z" fill="white"/>
<defs>
<linearGradient id="paint0_linear_1_23" x1="17.5" y1="-4.90809e-07" x2="34.5663" y2="31.539" gradientUnits="userSpaceOnUse">
<stop stop-color="#00A3FF"/>
<stop offset="1" stop-color="#37FFCF"/>
</linearGradient>
</defs>
</svg>
